G04 MADE WITH FRITZING*
G04 WWW.FRITZING.ORG*
G04 DOUBLE SIDED*
G04 HOLES PLATED*
G04 CONTOUR ON CENTER OF CONTOUR VECTOR*
%ASAXBY*%
%FSLAX23Y23*%
%MOIN*%
%OFA0B0*%
%SFA1.0B1.0*%
%ADD10C,0.077778*%
%ADD11C,0.073889*%
%ADD12C,0.078000*%
%ADD13C,0.075000*%
%ADD14C,0.062992*%
%ADD15R,0.078000X0.078000*%
%ADD16R,0.062992X0.062992*%
%ADD17C,0.024000*%
%ADD18C,0.048000*%
%LNCOPPER0*%
G90*
G70*
G54D10*
X140Y1079D03*
X140Y979D03*
X140Y879D03*
X140Y779D03*
X140Y679D03*
X140Y579D03*
X140Y479D03*
X140Y379D03*
X1040Y379D03*
X1040Y479D03*
X1040Y579D03*
X1040Y679D03*
X1040Y779D03*
X1040Y879D03*
X1040Y979D03*
X1040Y1079D03*
G54D11*
X140Y1879D03*
X140Y1779D03*
X140Y1679D03*
X140Y1579D03*
G54D12*
X140Y79D03*
X140Y179D03*
X140Y279D03*
X3240Y279D03*
X3240Y179D03*
G54D13*
X740Y479D03*
X333Y112D03*
G54D12*
X3140Y1079D03*
X3140Y979D03*
X3140Y879D03*
X3140Y1379D03*
X3140Y1279D03*
X3140Y1179D03*
X3140Y1579D03*
X3140Y1479D03*
X3140Y1379D03*
G54D13*
X140Y579D03*
X540Y579D03*
X140Y679D03*
X540Y679D03*
X2740Y979D03*
X2740Y1279D03*
X940Y679D03*
X1140Y879D03*
X2940Y1379D03*
X2940Y679D03*
X1540Y1979D03*
X1440Y1979D03*
X1340Y1979D03*
X1340Y1379D03*
X1340Y1079D03*
X1640Y1379D03*
X1640Y1079D03*
G54D14*
X1738Y1979D03*
X1640Y1979D03*
G54D13*
X740Y1379D03*
X740Y1079D03*
X840Y1379D03*
X840Y879D03*
X2140Y402D03*
X1884Y402D03*
X2140Y579D03*
X1884Y579D03*
X2540Y402D03*
X2284Y402D03*
X2540Y579D03*
X2284Y579D03*
X340Y879D03*
X640Y879D03*
X640Y879D03*
X1440Y479D03*
X2540Y879D03*
X2540Y679D03*
G54D15*
X140Y79D03*
X3240Y279D03*
X3140Y1079D03*
X3140Y1379D03*
X3140Y1579D03*
G54D16*
X1738Y1979D03*
G54D17*
X241Y1679D02*
X163Y1679D01*
D02*
X1022Y379D02*
X241Y378D01*
D02*
X241Y378D02*
X241Y1679D01*
G54D18*
D02*
X159Y179D02*
X3221Y179D01*
G54D17*
D02*
X541Y1179D02*
X540Y596D01*
D02*
X1638Y1179D02*
X541Y1179D01*
D02*
X2042Y1080D02*
X1638Y1179D01*
D02*
X3121Y1079D02*
X2042Y1080D01*
D02*
X1058Y679D02*
X1340Y680D01*
D02*
X1340Y680D02*
X1340Y1061D01*
D02*
X1640Y1061D02*
X1640Y579D01*
D02*
X1640Y579D02*
X1441Y579D01*
D02*
X1441Y579D02*
X1058Y579D01*
D02*
X163Y1679D02*
X1441Y1679D01*
D02*
X1441Y1679D02*
X1440Y1961D01*
D02*
X1541Y1679D02*
X1540Y1961D01*
D02*
X163Y1579D02*
X1441Y1579D01*
D02*
X1441Y1579D02*
X1541Y1679D01*
G04 End of Copper0*
M02*