; NON-PLATED HOLES START AT T1
; THROUGH (PLATED) HOLES START AT T100
M48
INCH
T100C0.031497
T101C0.038000
T102C0.046111
T103C0.035000
T104C0.036111
%
T100
X017383Y019787
X016399Y019787
T101
X031399Y010787
X031399Y011787
X031399Y009787
X031399Y012787
X031399Y013787
X031399Y014787
X031399Y015787
X001399Y001787
X032399Y001787
X001399Y000787
X031399Y008787
X032399Y002787
X001399Y002787
T102
X001399Y015787
X001399Y018787
X001399Y017787
X001399Y016787
T103
X005399Y005787
X008399Y013787
X022840Y004015
X027399Y009787
X003329Y001116
X022840Y005787
X021399Y004015
X027399Y012787
X029399Y006787
X025399Y006787
X011399Y008787
X007399Y013787
X009399Y006787
X005399Y006787
X007399Y004787
X014399Y019787
X014399Y004787
X007399Y010787
X025399Y005787
X008399Y008787
X006399Y008787
X029399Y013787
X001399Y005787
X025399Y004015
X003399Y008787
X001399Y006787
X016399Y013787
X013399Y019787
X013399Y010787
X018840Y005787
X021399Y005787
X018840Y004015
X016399Y010787
X015399Y019787
X025399Y008787
X013399Y013787
T104
X010399Y004787
X001399Y007787
X010399Y003787
X001399Y005787
X001399Y008787
X010399Y006787
X010399Y010787
X010399Y009787
X001399Y006787
X001399Y010787
X001399Y009787
X010399Y007787
X001399Y004787
X001399Y003787
X010399Y008787
X010399Y005787
T00
M30
