G04 MADE WITH FRITZING*
G04 WWW.FRITZING.ORG*
G04 DOUBLE SIDED*
G04 HOLES PLATED*
G04 CONTOUR ON CENTER OF CONTOUR VECTOR*
%ASAXBY*%
%FSLAX23Y23*%
%MOIN*%
%OFA0B0*%
%SFA1.0B1.0*%
%ADD10C,0.087778*%
%ADD11C,0.083889*%
%ADD12C,0.088000*%
%ADD13C,0.085000*%
%ADD14C,0.072992*%
%ADD15R,0.088000X0.088000*%
%ADD16R,0.072992X0.072992*%
%LNMASK0*%
G90*
G70*
G54D10*
X140Y1079D03*
X140Y979D03*
X140Y879D03*
X140Y779D03*
X140Y679D03*
X140Y579D03*
X140Y479D03*
X140Y379D03*
X1040Y379D03*
X1040Y479D03*
X1040Y579D03*
X1040Y679D03*
X1040Y779D03*
X1040Y879D03*
X1040Y979D03*
X1040Y1079D03*
G54D11*
X140Y1879D03*
X140Y1779D03*
X140Y1679D03*
X140Y1579D03*
G54D12*
X140Y79D03*
X140Y179D03*
X140Y279D03*
X3240Y279D03*
X3240Y179D03*
G54D13*
X740Y479D03*
X333Y112D03*
G54D12*
X3140Y1579D03*
X3140Y1479D03*
X3140Y1379D03*
X3140Y1379D03*
X3140Y1279D03*
X3140Y1179D03*
X3140Y1079D03*
X3140Y979D03*
X3140Y879D03*
G54D13*
X140Y679D03*
X540Y679D03*
X140Y579D03*
X540Y579D03*
X2740Y979D03*
X2740Y1279D03*
X940Y679D03*
X1140Y879D03*
X2940Y1379D03*
X2940Y679D03*
X1540Y1979D03*
X1440Y1979D03*
X1340Y1979D03*
X1340Y1379D03*
X1340Y1079D03*
X1640Y1379D03*
X1640Y1079D03*
G54D14*
X1738Y1979D03*
X1640Y1979D03*
G54D13*
X840Y1379D03*
X840Y879D03*
X740Y1379D03*
X740Y1079D03*
X2140Y402D03*
X1884Y402D03*
X2140Y579D03*
X1884Y579D03*
X2540Y402D03*
X2284Y402D03*
X2540Y579D03*
X2284Y579D03*
X340Y879D03*
X640Y879D03*
X640Y879D03*
X1440Y479D03*
X2540Y879D03*
X2540Y679D03*
G54D15*
X140Y79D03*
X3240Y279D03*
X3140Y1579D03*
X3140Y1379D03*
X3140Y1079D03*
G54D16*
X1738Y1979D03*
G04 End of Mask0*
M02*